<svg width="37" height="40" viewBox="0 0 37 37" fill="none" xmlns="http://www.w3.org/2000/svg">
<path d="M37 0H0V37H37V0Z" fill="white" fill-opacity="0.01"/>
<path d="M21.624 3.40002C17.4075 4.4993 14.2954 8.33315 14.2954 12.8939C14.2954 18.3122 18.6877 22.7046 24.1059 22.7046C28.6667 22.7046 32.5006 19.5924 33.5998 15.376C33.8074 16.3848 33.9166 17.4298 33.9166 18.5C33.9166 27.0145 27.0144 33.9166 18.4999 33.9166C9.98553 33.9166 3.08325 27.0145 3.08325 18.5C3.08325 9.98559 9.98553 3.08331 18.4999 3.08331C19.5701 3.08331 20.6151 3.19239 21.624 3.40002Z" stroke="white" stroke-width="3" stroke-linejoin="round"/>
<path d="M30.0624 3.08331L30.9278 5.74648H33.7279L31.4626 7.39239L32.3279 10.0556L30.0624 8.40965L27.797 10.0556L28.6623 7.39239L26.397 5.74648H29.1971L30.0624 3.08331Z" fill="white"/>
</svg>
