<svg width="37" height="40" viewBox="0 0 24 21" fill="none" xmlns="http://www.w3.org/2000/svg">
<path fill-rule="evenodd" clip-rule="evenodd" d="M17.4 6.43001C16.89 3.86001 14.61 2 12 2C9.94003 2 8.07003 3.14 7.13003 4.97001L6.63003 5.92001L5.56002 6.03001C3.53002 6.24001 2.00002 7.95001 2.00002 10C2.00002 11.8611 3.2694 13.4243 4.99001 13.8715V15.9151C2.15973 15.4339 2.03801e-05 12.9659 2.03801e-05 10C2.03801e-05 6.91001 2.34002 4.36 5.34002 4.04C6.59003 1.64 9.11003 2.86102e-06 12 2.86102e-06C15.64 2.86102e-06 18.67 2.59 19.36 6.04001C21.95 6.22001 24 8.36001 24 11C24 13.76 21.76 16 19 16H18.99V14H19C20.65 14 22 12.65 22 11C22 9.45001 20.78 8.15001 19.22 8.04001L17.7 7.93001L17.4 6.43001Z" fill="#ffffff"/>
<path d="M13.0132 10.1027C11.6457 10.4592 10.6364 11.7027 10.6364 13.1818C10.6364 14.9391 12.0609 16.3636 13.8182 16.3636C15.2973 16.3636 16.5408 15.3543 16.8973 13.9868C16.9646 14.314 17 14.6529 17 15C17 17.7614 14.7614 20 12 20C9.23858 20 7 17.7614 7 15C7 12.2386 9.23858 10 12 10C12.3471 10 12.686 10.0354 13.0132 10.1027Z" stroke="#ffffff" stroke-width="2" stroke-linejoin="round"/>
</svg>
