<svg width="40" height="40" viewBox="0 0 41 35" fill="none" xmlns="http://www.w3.org/2000/svg">
<path fill-rule="evenodd" clip-rule="evenodd" d="M28.5536 10.7167C27.7172 6.43333 23.978 3.33333 19.6976 3.33333C16.3192 3.33333 13.2524 5.23333 11.7108 8.28333L10.8908 9.86667L9.13597 10.05C5.80678 10.4 3.29758 13.25 3.29758 16.6667C3.29758 19.768 5.37885 22.3732 8.20012 23.119V26.525C3.55898 25.7227 0.0175781 21.6093 0.0175781 16.6667C0.0175781 11.5167 3.85518 7.26667 8.77517 6.73333C10.8252 2.73333 14.958 0 19.6976 0C25.6672 0 30.6364 4.31667 31.768 10.0667C36.0156 10.3667 39.3776 13.9333 39.3776 18.3333C39.3776 22.9333 35.704 26.6667 31.1776 26.6667H31.1601V23.3333H31.1776C33.8836 23.3333 36.0976 21.0833 36.0976 18.3333C36.0976 15.75 34.0968 13.5833 31.5384 13.4L29.0456 13.2167L28.5536 10.7167Z" fill="white"/>
<path d="M19.6801 20C19.6801 21.901 19.6801 24.1352 19.6801 25.8333" stroke="white" stroke-width="2"/>
<path d="M26.24 18.3333C26.24 20.2343 26.24 22.4685 26.24 24.1666" stroke="white" stroke-width="2"/>
<path d="M26.24 26.6667C26.24 28.5677 26.24 30.8019 26.24 32.5" stroke="white" stroke-width="2"/>
<path d="M12.3 18.3333V23.9035" stroke="white" stroke-width="2"/>
<path d="M12.3 26.6667C12.3 28.4159 12.3 30.7669 12.3 32.5" stroke="white" stroke-width="2"/>
<path d="M19.6801 28.3333C19.6801 30.2343 19.6801 32.4685 19.6801 34.1666" stroke="white" stroke-width="2"/>
</svg>
