<svg width="41" height="36" viewBox="0 0 41 36" fill="none" xmlns="http://www.w3.org/2000/svg">
<path fill-rule="evenodd" clip-rule="evenodd" d="M29.725 11.0229C28.8537 6.61716 24.9587 3.42857 20.5 3.42857C16.9808 3.42857 13.7863 5.38285 12.1804 8.52001L11.3263 10.1486L9.49833 10.3372C6.03042 10.6972 3.41667 13.6286 3.41667 17.1429C3.41667 20.3333 5.58519 23.0131 8.52456 23.7797V27.283C3.6895 26.4581 0 22.2273 0 17.1429C0 11.8457 3.9975 7.47428 9.1225 6.92571C11.2579 2.81142 15.5629 0 20.5 0C26.7183 0 31.8945 4.44 33.0733 10.3543C37.4979 10.6629 41 14.3314 41 18.8571C41 23.5886 37.1733 27.4286 32.4583 27.4286H32.4412V24H32.4583C35.277 24 37.5833 21.6857 37.5833 18.8571C37.5833 16.2 35.4991 13.9714 32.8341 13.7829L30.2375 13.5943L29.725 11.0229Z" fill="#333333"/>
<path d="M25.625 17.1429H18.7917L15.375 25.7143L20.5 24.8572L17.9375 32.5715L26.4792 24.8572L23.0625 22.2857L25.625 17.1429Z" stroke="#333333" stroke-width="2"/>
<path d="M11.9583 21.4286V24.4286V27.4286" stroke="#333333" stroke-width="2"/>
<path d="M29.8958 21.4286V24.4286V27.4286" stroke="#333333" stroke-width="2"/>
<path d="M29.8958 30V33V36" stroke="#333333" stroke-width="2"/>
<path d="M11.9583 30V36" stroke="#333333" stroke-width="2"/>
</svg>
