<svg width="180" height="180" viewBox="0 0 180 180" fill="none" xmlns="http://www.w3.org/2000/svg">
<g clip-path="url(#clip0_2:12)">
<path d="M38.4539 105.371L46.2419 102.276" stroke="#ffffff" stroke-width="2" stroke-linecap="round" stroke-linejoin="round"/>
<path d="M37.5 72.6052L45 75.0902" stroke="#ffffff" stroke-width="2" stroke-linecap="round" stroke-linejoin="round"/>
<path d="M64.9249 40.0751L68.6861 47.5639" stroke="#ffffff" stroke-width="2" stroke-linecap="round" stroke-linejoin="round"/>
<path d="M65.0376 102.538C58.1138 88.7523 63.6772 71.9613 77.4624 65.0376C91.2477 58.1138 108.039 63.6772 114.962 77.4624C119.184 85.8683 118.764 95.3897 114.669 103.111" stroke="#ffffff" stroke-width="2" stroke-linecap="round" stroke-linejoin="round"/>
<path d="M107.395 37.5L104.91 45" stroke="#ffffff" stroke-width="2" stroke-linecap="round" stroke-linejoin="round"/>
<path d="M139.925 64.9249L132.436 68.6861" stroke="#ffffff" stroke-width="2" stroke-linecap="round" stroke-linejoin="round"/>
<path d="M140.598 101.624L134.523 99.6108" stroke="#ffffff" stroke-width="2" stroke-linecap="round" stroke-linejoin="round"/>
</g>
<path d="M30.6175 118.247C30.6071 121.12 40.8565 116.042 66.5139 116.135C82.3506 116.135 95.734 115.782 97.6594 113.496C106.106 109.801 57.4704 105.058 78.6554 105.578C124.469 106.702 155.741 114.416 155.727 118.247" stroke="#ffffff" stroke-width="2" stroke-linecap="round" stroke-linejoin="round"/>
<defs>
<clipPath id="clip0_2:12">
<rect width="134.084" height="134.084" fill="white" transform="translate(0 60.1803) rotate(-26.6684)"/>
</clipPath>
</defs>
</svg>
